<svg width="3244" height="1268" viewBox="0 0 3244 1268" fill="none" xmlns="http://www.w3.org/2000/svg">
<path d="M342.5 767.9C339.2 767.4 331.3 766.6 325 766.1C312.6 765.1 294.5 762.7 286.5 761C283.8 760.4 279.8 759.6 277.7 759.3C275.7 759 273.7 758.4 273.4 757.9C273.1 757.4 271.6 757 270 757C268.4 757 266.8 756.6 266.5 756C266.2 755.5 264.6 755 263 755C261.4 755 259.8 754.6 259.5 754C259.2 753.5 257.8 753 256.5 753C255.2 753 253.8 752.6 253.5 752C253.2 751.5 251.8 751 250.5 751C249.2 751 247.8 750.6 247.5 750C247.2 749.5 246.1 749 245.2 749C243.4 749 232 745 225.5 742C206.7 733.5 190.5 725.5 189 724C188 723 182.5 719.9 180.8 719.3C179.8 719 179 718.4 179 717.9C179 717.4 178.6 717 178 717C176.7 717 165.6 709.9 165.2 708.8C165 708.4 164.4 708 163.9 708C163.4 708 162.2 707.4 161.3 706.6C160.3 705.8 155.7 702.3 151 698.8C146.3 695.4 142 692.1 141.4 691.5C140.8 691 138.1 688.7 135.4 686.5C123.4 676.8 96.4999 649.1 87.7999 637.5C87.3999 637 85.5999 634.7 83.6999 632.5C81.8999 630.3 79.2999 626.9 77.9999 625C76.6999 623.1 75.2999 621.3 74.8999 621C74.0999 620.4 59.5999 598.1 56.7999 593.2C49.2999 579.8 36.4999 554.9 34.1999 548.9C33.3999 547 32.3999 544.5 31.8999 543.3C31.3999 542 30.5999 539.9 29.9999 538.5C29.4999 537.1 28.4999 534.8 27.8999 533.3C25.5999 527.7 25.0999 526.4 23.1999 520.5C19.0999 508.1 17.9999 504.1 17.9999 502.1C17.9999 501 17.5999 499.8 16.9999 499.5C16.4999 499.2 15.9999 497.8 15.9999 496.5C15.9999 495.2 15.4999 493.8 14.9999 493.5C14.3999 493.2 13.9999 491.4 13.9999 489.5C13.9999 487.6 13.5999 485.8 12.9999 485.5C12.4999 485.2 11.9999 483.4 11.9999 481.6C11.9999 479.9 11.5999 478 11.0999 477.4C10.5999 476.9 9.9999 474.7 9.6999 472.5C9.2999 470.3 8.5999 466 8.0999 463C5.7999 451.2 3.7999 434.9 2.9999 422C2.4999 414.6 1.5999 404.1 0.999902 398.8C0.199902 391.6 0.199902 386.4 0.999902 379.3C1.5999 373.9 2.5999 363.2 3.0999 355.5C3.5999 347.8 4.1999 339.9 4.4999 338C6.0999 326.6 6.9999 320.9 7.9999 316C8.5999 313 9.2999 308.7 9.6999 306.5C9.9999 304.3 10.5999 302.1 11.0999 301.6C11.5999 301 11.9999 299.1 11.9999 297.4C11.9999 295.6 12.4999 293.8 12.9999 293.5C13.5999 293.2 13.9999 291.4 13.9999 289.5C13.9999 287.6 14.3999 285.8 14.9999 285.5C15.4999 285.2 15.9999 283.8 15.9999 282.4C15.9999 281.1 16.3999 279.2 16.8999 278.2C17.3999 277.3 18.5999 273.8 19.4999 270.5C21.5999 263.1 24.7999 253.3 26.1999 250C26.7999 248.6 27.6999 246.5 28.0999 245.3C28.5999 244 29.3999 242 29.8999 240.8C30.2999 239.5 31.1999 237.4 31.7999 236C32.3999 234.6 33.3999 232 34.1999 230.1C36.1999 224.9 52.9999 191.9 55.0999 188.8C56.1999 187.4 56.9999 185.9 56.9999 185.5C56.9999 185.2 58.1999 183 59.6999 180.7C61.2999 178.4 62.9999 175.7 63.4999 174.9C65.5999 171.5 74.0999 158.8 74.9999 157.7C75.5999 157 78.4999 153.1 81.6999 149C84.7999 144.9 90.5999 137.7 94.5999 133C102.3 123.9 130 96.4 136.4 91.5C140.4 88.4 142.7 86.5 147 82.6C148.4 81.4 151 79.5 152.8 78.5C154.6 77.4 156 76.2 156 75.8C156 75.4 156.7 75 157.5 75C158.3 75 159 74.6 159 74C159 73.5 159.6 73 160.4 73C161.2 73 162 72.6 162.2 72.1C162.6 70.9 179.5 60 180.9 60C181.5 60 182 59.6 182 59.1C182 58.6 182.8 58 183.8 57.7C185.5 57.1 191.1 53.9 192 53C193 51.9 211.6 43 212.8 43C213.5 43 214 42.6 214 42C214 41.5 214.9 41 215.9 41C217 41 218.2 40.5 218.5 40C218.8 39.4 220 39 221.1 39C222.1 39 223 38.6 223 38C223 37.5 223.7 37 224.5 37C225.3 37 226.8 36.6 227.8 36.1C228.7 35.6 230.7 34.7 232.3 34.1C233.8 33.5 236 32.6 237.3 32C238.5 31.5 242 30.4 245 29.5C248 28.6 251.3 27.4 252.2 26.9C253.2 26.4 255.1 26 256.4 26C257.8 26 259.2 25.6 259.5 25C259.8 24.5 261.4 24 263 24C264.6 24 266.2 23.5 266.5 23C266.8 22.4 268.4 22 270 22C271.6 22 273.2 21.6 273.5 21C273.8 20.5 275.6 20 277.4 20C279.1 20 281 19.6 281.5 19.1C282.1 18.6 284.3 18 286.5 17.6C288.7 17.3 293.2 16.6 296.5 16C299.8 15.4 306.6 14.5 311.5 14C349.5 10 354.6 10 393.5 14.1C410.9 15.9 412.5 16.2 413.5 17.1C414 17.6 416.1 18 418.1 18C420.2 18 422.2 18.4 422.5 19C422.8 19.5 424.6 20 426.5 20C428.4 20 430.2 20.4 430.5 21C430.8 21.5 432.6 22 434.5 22C436.4 22 438.2 22.4 438.5 23C438.8 23.5 440.4 24 442.1 24C443.7 24 445 24.5 445 25C445 25.6 446.3 26 447.9 26C449.6 26 451.1 26.4 451.4 26.9C451.7 27.4 454 28.1 456.5 28.4C458.9 28.8 461.2 29.5 461.5 30.1C461.9 30.6 462.8 31 463.6 31C464.4 31 467.2 31.9 469.8 33.1C472.4 34.3 475.6 35.7 477 36.2C478.4 36.8 480.3 37.6 481.2 38.1C482.2 38.6 483.7 39 484.5 39C485.3 39 486 39.5 486 40C486 40.6 486.9 41 488 41C489.1 41 490 41.5 490 42C490 42.6 490.7 43 491.5 43C492.3 43 497.8 45.5 503.7 48.6C509.6 51.7 515.5 54.8 516.7 55.4C518 56 519 56.8 519 57.3C519 57.7 519.5 58 520.1 58C520.8 58 527.8 62.4 535.8 67.7C555.4 80.9 554.3 80.1 558.3 83.6C560.3 85.3 563.1 87.5 564.5 88.6L566.9 90.4L557.2 100.5C543.9 114.3 532.1 128.4 522.7 142C516 151.7 512 158 512 158.9C512 159.4 511.6 160 511.2 160.2C510.2 160.6 504 170.7 504 172C504 172.6 503.6 173 503 173C502.5 173 502 173.5 502 174.1C502 174.7 501.1 176.4 500.1 177.9C499 179.4 497.8 181.8 497.5 183.3C497.1 184.8 496.4 186 495.9 186C495.4 186 495 186.9 495 187.9C495 189 494.7 190 494.2 190.2C492.8 190.8 483.6 210.5 480 220.5C478.8 223.8 477.5 227.4 477.1 228.5C475.4 232.7 473.7 236.6 472.9 238.2C472.4 239.2 472 240.9 472 241.9C472 243 471.6 244.2 471 244.5C470.5 244.8 470 246.2 470 247.5C470 248.8 469.6 250.2 469 250.5C468.5 250.8 468 252.2 468 253.5C468 254.8 467.6 256.2 467 256.5C466.5 256.8 466 258.4 466 260.1C466 263.9 464.8 263.8 461.6 259.5C456.4 252.7 438 235 436.1 235C435.6 235 435 234.6 434.8 234.1C434.1 232.3 413.8 220 411.5 220C410.7 220 410 219.6 410 219C410 218.5 409.3 218 408.5 218C407.7 218 406 217.5 404.7 216.8C400 214.4 399 214 397.5 214C396.7 214 395.2 213.6 394.2 213.1C385.6 208.3 333.2 208.3 324.8 213C323.8 213.6 322.1 214 321 214C319.9 214 319 214.5 319 215C319 215.6 318.2 216 317.2 216C313.7 216 289.6 229.1 283 234.7C277.5 239.3 276.2 240.5 271.5 245C265.4 250.8 258 258.8 256 261.6C244.5 278 236.5 292 231.7 304C231.2 305.4 230.3 307.6 229.7 309C229.2 310.4 228.4 312.3 227.9 313.2C227.4 314.2 227 315.9 227 316.9C227 318 226.6 319.2 226 319.5C225.5 319.8 225 321.4 225 323C225 324.6 224.6 326.1 224.1 326.4C223.6 326.7 223 328.4 222.7 330.2C222.3 332 221.6 336 221.1 339C220.5 342 219.6 347.4 219 351C217.8 359.1 217.9 403.4 219.1 411.5C219.6 414.8 220.3 419.6 220.6 422.3C221 424.9 221.7 427.3 222.1 427.6C222.6 427.9 223 429.6 223 431.5C223 433.4 223.5 435.2 224 435.5C224.6 435.8 225 437.4 225 439C225 440.6 225.5 442.2 226 442.5C226.6 442.8 227 444 227 445.1C227 446.1 227.4 447.8 227.9 448.8C228.4 449.7 229.2 451.6 229.8 453C238.1 473.5 244.2 484.4 256.1 500C262.2 508 277.2 523.1 283 527C284.9 528.3 286.7 529.7 287 530C289.7 533 314.2 546 317.2 546C318.2 546 319 546.4 319 546.8C319 547.3 321.6 548.2 324.8 548.9C327.9 549.5 332.5 550.6 335 551.2C340.9 552.6 375.5 553.4 380 552.2C381.9 551.6 386.9 550.4 391 549.5C398.1 547.9 401.3 546.9 405.2 544.9C406.2 544.4 407.7 544 408.5 544C409.3 544 410 543.6 410 543C410 542.5 410.9 542 412 542C413.1 542 414 541.6 414 541C414 540.5 414.9 540 416 540C417.1 540 418 539.6 418 539C418 538.5 418.4 538 419 538C420.3 538 434.4 529 434.8 527.9C435 527.4 435.6 527 436.2 527C437.8 527 456.2 509.3 461.7 502.5L464.9 498.5L465.6 502.8C465.9 505.1 466.7 507.3 467.1 507.6C467.6 507.9 468 509.2 468 510.5C468 511.8 468.5 513.2 469 513.5C471.3 514.9 469.4 517.4 458.4 528.2C439.2 546.8 418.2 571.3 407.6 587.4C401.4 596.6 395.1 609 392.4 617C389.7 624.8 389.7 642.9 392.4 648.2C397.4 658.3 408 664.8 425.1 668C436.5 670.2 455.4 670.7 466.8 669.1C470.5 668.5 477.8 667.6 483 667C495.4 665.5 514.9 661.6 537.9 655.8L547.2 653.4L561.3 667.3L575.3 681.2L572.4 683.6C570.8 685 567.7 687.5 565.6 689.3C563.5 691.1 560.1 693.9 558.1 695.6C556.1 697.3 553 699.5 551.3 700.6C549.5 701.6 548 702.8 548 703.2C548 703.6 547.4 704 546.6 704C545.8 704 545 704.4 544.8 704.9C544.4 706.1 524.5 719 523.1 719C522.5 719 522 719.5 522 720C522 720.6 521.3 721 520.5 721C519.7 721 519 721.3 519 721.8C519 722.2 518 723 516.7 723.6C515.5 724.2 510.5 726.8 505.7 729.4C500.8 731.9 496.2 734 495.4 734C494.6 734 494 734.5 494 735C494 735.6 493.1 736 492 736C490.9 736 490 736.5 490 737C490 737.6 489.1 738 488.1 738C487 738 485.8 738.5 485.5 739C485.2 739.6 484 740 482.9 740C481.9 740 481 740.5 481 741C481 741.6 480.3 742 479.5 742C478.7 742 477.2 742.4 476.2 742.9C472.8 744.8 467.4 746.8 463 748.1C460.5 748.8 458.1 749.7 457.5 750.2C457 750.6 455.3 751 453.8 751C452.3 751 451 751.5 451 752C451 752.6 449.7 753 448 753C446.4 753 445 753.5 445 754C445 754.6 443.4 755 441.5 755C439.6 755 438 755.5 438 756C438 756.6 436.5 757 434.6 757C432.7 757 430.8 757.5 430.5 758C430.2 758.6 428.4 759 426.6 759C424.9 759 423 759.4 422.4 759.9C421.5 760.8 419.3 761.2 405 763C400.3 763.6 394.6 764.5 392.2 765C389.9 765.6 384.3 766 379.7 766C375.2 766 370.1 766.4 368.3 766.9C363.3 768.3 349 768.9 342.5 767.9V767.9Z" fill="black"/>
<path d="M2158.5 767.5C2154.7 766.8 2148.2 766.1 2144.3 766.1C2140.3 766 2135.1 765.6 2132.8 765C2129 764.2 2123.6 763.3 2108.7 761.3C2106.7 761 2104.7 760.4 2104.4 759.9C2104.1 759.4 2102.4 759 2100.5 759C2098.6 759 2096.8 758.6 2096.5 758C2096.2 757.5 2094.6 757 2093 757C2091.4 757 2089.8 756.6 2089.5 756C2089.2 755.5 2087.6 755 2086 755C2084.4 755 2082.8 754.6 2082.5 754C2082.2 753.5 2080.8 753 2079.5 753C2078.2 753 2076.8 752.6 2076.5 752C2076.2 751.5 2074.8 751 2073.5 751C2072.2 751 2070.8 750.6 2070.5 750C2070.2 749.5 2068.8 749 2067.5 749C2066.2 749 2064.9 748.6 2064.6 748.1C2064.3 747.6 2062.4 746.9 2060.5 746.6C2057.5 746 2054.4 744.7 2046.8 740.9C2045.8 740.4 2044.3 740 2043.5 740C2042.7 740 2042 739.6 2042 739C2042 738.5 2041.3 738 2040.5 738C2039.7 738 2037.5 737.1 2035.5 736C2033.5 734.9 2031.3 734 2030.5 734C2029.7 734 2029 733.6 2029 733C2029 732.5 2028.3 732 2027.5 732C2026.2 732 2012.2 725.2 2011 724C2010.7 723.7 2009.6 723 2008.5 722.4C2003.4 719.6 2001.5 718.5 2001 717.9C2000.7 717.6 1998.6 716.5 1996.3 715.5C1993.9 714.4 1992 713.3 1992 712.8C1992 712.4 1991.4 712 1990.7 712C1990 712 1988.4 711.1 1987.2 710C1986 708.9 1984.6 708 1984 708C1983.5 708 1983 707.6 1983 707C1983 706.5 1982.3 706 1981.5 706C1980.7 706 1980 705.6 1980 705C1980 704.5 1979.3 704 1978.5 704C1977.7 704 1977 703.6 1977 703C1977 702.5 1976.3 702 1975.5 702C1974.7 702 1974 701.6 1974 701C1974 700.5 1973.5 700 1972.9 700C1972 700 1957.7 689.9 1956 688C1955.7 687.7 1953 685.6 1950 683.4C1947 681.1 1943.4 678.3 1942 677.1C1923.2 661 1913.6 651.2 1903.5 637.5C1900.2 633.1 1896.7 628.6 1895.8 627.6C1894.8 626.5 1894 625 1894 624.3C1894 623.6 1893.6 623 1893.2 623C1892.7 623 1891.8 622 1891.1 620.8C1890.5 619.5 1889.1 617.2 1888 615.5C1887 613.9 1885.3 610.9 1884.4 609C1883.4 607.1 1881.5 603.7 1880 601.5C1877.3 597.3 1870 582.5 1870 581.1C1870 580.6 1868.6 577.4 1866.9 573.9C1865.1 570.4 1863.4 566.6 1863 565.5C1862.3 563.5 1860.9 560.2 1859.1 555.8C1857.2 551.4 1855 543.9 1855 542C1855 541 1854.6 539.8 1854 539.5C1853.5 539.2 1853 537.8 1853 536.5C1853 535.2 1852.6 533.8 1852 533.5C1851.5 533.2 1851 531.8 1851 530.5C1851 529.2 1850.6 527.8 1850 527.5C1849.5 527.2 1849 525.6 1849 524C1849 522.4 1848.6 520.9 1848.1 520.6C1847.6 520.3 1847 518.6 1846.7 516.8C1845.8 511.3 1844.9 507.6 1844 505.5C1843.5 504.4 1842.9 502.2 1842.7 500.5C1842.4 498.9 1841.4 493.5 1840.5 488.5C1838.2 476.6 1837 468.7 1836.4 462C1836.1 459 1835.5 455.6 1835 454.5C1834.5 453.4 1833.8 449.4 1833.6 445.5C1833.3 441.7 1832.5 432.2 1831.9 424.5C1830 402.7 1830.8 352.4 1833 347.5C1833.5 346.4 1834.1 342.4 1834.4 338.5C1835.1 328.7 1836.4 320.1 1840.4 298C1841.8 290 1842.3 287.7 1845.1 276.8C1845.7 274.4 1846.4 271 1846.7 269.2C1847 267.4 1847.6 265.7 1848.1 265.4C1848.6 265.1 1849 263.6 1849 261.9C1849 260.3 1849.5 259 1850 259C1850.6 259 1851 257.7 1851 256.1C1851 254.4 1851.5 252.8 1852 252.5C1852.6 252.2 1853 251 1853 249.9C1853 248.9 1853.4 247.2 1853.9 246.2C1854.7 244.7 1856.2 240 1856.4 237.8C1856.5 237.5 1856.8 236.8 1857.3 236.4C1857.7 236 1858 234.6 1858 233.3C1858 232.1 1858.5 231 1859 231C1859.6 231 1860 230.1 1860 229C1860 227.9 1860.5 226.1 1861 225C1861.6 223.9 1862.5 222.1 1863 221C1863.5 219.9 1864 218.3 1864 217.5C1864 216.7 1864.5 216 1865 216C1865.6 216 1866 215.4 1866 214.6C1866 213.8 1867 211.2 1868.1 208.8C1869.3 206.5 1870.6 203.6 1871.1 202.5C1872.9 197.7 1879.5 184.5 1880.2 184.2C1880.6 184 1881 183 1881 182C1881 181 1881.3 180 1881.8 179.8C1882.7 179.4 1885 175.5 1889.2 167.5C1890.9 164.2 1892.6 161.4 1893.1 161.2C1893.6 161 1894 160.3 1894 159.6C1894 158.9 1894.9 157.5 1896 156.5C1897.1 155.5 1898 154.3 1898 153.9C1898 153.4 1899.4 151.1 1901 148.8C1902.7 146.4 1904.8 143.4 1905.8 142C1906.7 140.6 1907.7 139.3 1908 139C1908.3 138.7 1909.7 136.9 1911 135C1912.3 133.1 1913.7 131.3 1914 131C1914.3 130.7 1917.2 127.4 1920.5 123.5C1928.2 114.6 1939.9 102.9 1947.5 96.5C1950.8 93.8 1954 91.1 1954.6 90.5C1955.2 90 1957.2 88.4 1959 87C1960.8 85.6 1962.8 84 1963.4 83.4C1964 82.9 1968.3 79.7 1973 76.5C1977.7 73.2 1981.7 70.2 1981.8 69.8C1982 69.3 1982.6 69 1983.1 69C1983.5 69 1987 67 1990.7 64.7C1994.4 62.3 1999 59.7 2000.8 58.9C2002.5 58.1 2004 57.2 2004 56.8C2004 56.3 2004.7 56 2005.5 56C2006.3 56 2007 55.6 2007 55C2007 54.5 2007.9 54 2008.9 54C2010 54 2011 53.6 2011.2 53.2C2011.4 52.8 2015.1 50.7 2019.5 48.6C2023.9 46.6 2028.3 44.4 2029.2 43.9C2030.2 43.4 2031.7 43 2032.5 43C2033.3 43 2034 42.6 2034 42C2034 41.5 2034.9 41 2036 41C2037.1 41 2038 40.6 2038 40C2038 39.5 2038.7 39 2039.5 39C2040.3 39 2041.8 38.6 2042.8 38.1C2043.7 37.6 2045.6 36.8 2047 36.3C2048.4 35.7 2050.9 34.7 2052.5 34C2058.5 31.5 2059.6 31.1 2065.5 29.4C2068.8 28.5 2072.3 27.4 2073.2 26.9C2074.2 26.4 2076.1 26 2077.4 26C2078.8 26 2080.2 25.5 2080.5 25C2080.8 24.5 2082.4 24 2084.1 24C2085.7 24 2087 23.6 2087 23C2087 22.5 2088.5 22 2090.4 22C2092.3 22 2094.2 21.6 2094.5 21C2094.8 20.5 2096.6 20 2098.4 20C2100.1 20 2102 19.6 2102.5 19.1C2103.1 18.6 2105.3 18 2107.5 17.6C2109.7 17.3 2114.2 16.6 2117.5 16C2123.3 15 2128.5 14.4 2155.2 11.9C2169 10.6 2186.7 11.1 2211.5 13.6C2234.2 15.8 2236.4 16.1 2237.5 17.1C2238 17.6 2240.1 18 2242.1 18C2244.2 18 2246.2 18.5 2246.5 19C2246.8 19.6 2248.7 20 2250.6 20C2252.5 20 2254 20.5 2254 21C2254 21.6 2255.6 22 2257.5 22C2259.4 22 2261 22.5 2261 23C2261 23.6 2262.3 24 2263.9 24C2265.6 24 2267.2 24.4 2267.5 25C2267.8 25.5 2269.1 26 2270.4 26C2271.6 26 2273 26.4 2273.5 26.8C2274.1 27.2 2277.2 28.4 2280.5 29.5C2283.8 30.6 2288 32.2 2289.8 33.2C2291.6 34.2 2293.7 35 2294.5 35C2295.3 35 2296 35.5 2296 36C2296 36.6 2296.9 37 2298 37C2299.1 37 2300 37.5 2300 38C2300 38.6 2300.9 39 2302 39C2303.1 39 2304 39.5 2304 40C2304 40.6 2304.9 41 2305.9 41C2307 41 2308 41.3 2308.2 41.8C2308.5 42.4 2315.9 46.6 2321.7 49.4C2323 50 2324 50.8 2324 51.3C2324 51.7 2324.7 52 2325.5 52C2326.3 52 2327 52.5 2327 53C2327 53.6 2327.7 54 2328.5 54C2329.3 54 2330 54.5 2330 55C2330 55.6 2330.7 56 2331.5 56C2332.3 56 2333 56.3 2333 56.8C2333 57.2 2335.1 58.8 2337.8 60.5C2342.2 63.3 2343.4 64.2 2348 68C2348.9 68.8 2351.2 70.6 2353 72C2367 82.7 2386.1 101.4 2403.5 121.4C2406.3 124.6 2409.7 128.4 2411.1 130C2412.5 131.5 2414.7 134.2 2416.1 136C2418.2 138.7 2421 142.4 2426.3 149C2429 152.4 2437 165 2437 165.9C2437 166.4 2437.3 167 2437.8 167.2C2438.8 167.6 2441.5 172.3 2446.3 182C2448.6 186.7 2450.8 190.6 2451.2 190.8C2451.7 191 2452 191.7 2452 192.4C2452 193.1 2452.6 195 2453.4 196.6C2458.1 206.4 2461.9 216 2462.7 220.3C2463 221.8 2463.6 223.3 2464.1 223.6C2464.6 223.9 2465 225.2 2465 226.6C2465 227.9 2465.5 229 2466 229C2466.6 229 2467 230.4 2467 232C2467 233.7 2467.5 235 2468 235C2468.6 235 2469 236.3 2469 237.9C2469 239.6 2469.5 241.2 2470 241.5C2470.6 241.8 2471 243.2 2471 244.5C2471 245.8 2471.5 247.2 2472 247.5C2472.6 247.8 2473 249.6 2473 251.5C2473 253.4 2473.4 255.1 2473.9 255.4C2474.4 255.7 2475 257.4 2475.3 259.2C2475.7 261 2476.6 266.1 2477.5 270.5C2478.4 274.9 2479.4 280.5 2479.7 283C2480 285.5 2480.6 287.9 2481.1 288.5C2481.6 289 2482 291.5 2482 294.1C2482 296.7 2482.5 299.2 2483 299.5C2483.6 299.8 2484 302.7 2484 305.9C2484 309 2484.4 312 2484.9 312.5C2485.4 313.1 2486.1 316.7 2486.4 320.5C2486.7 324.4 2487.4 334 2488.1 342C2488.7 350 2489.3 359.7 2489.2 363.5C2489.2 367.4 2488.8 390 2488.5 413.7L2487.8 457L2263.6 457.2L2039.5 457.5L2039.6 464.5C2039.8 472.9 2040.9 480.8 2042.1 481.6C2042.6 481.9 2043 483.2 2043 484.6C2043 485.9 2043.5 487 2044 487C2044.6 487 2045 487.9 2045 488.9C2045 490.9 2049 499.3 2050.3 499.8C2050.7 500 2051 501 2051 502.1C2051 503.1 2051.4 504 2051.9 504C2052.4 504 2053.3 505.4 2054 507C2054.7 508.7 2055.6 510 2056 510C2056.4 510 2057.1 510.8 2057.6 511.9C2059.7 516.3 2073.2 530.9 2080.4 536.5C2082.5 538.2 2084.9 540.1 2085.6 540.8C2086.3 541.4 2087.3 542 2087.9 542C2088.5 542 2089 542.3 2089 542.8C2089 544.4 2114.7 559 2117.6 559C2118.4 559 2119 559.5 2119 560C2119 560.6 2119.7 561 2120.5 561C2121.3 561 2122.8 561.4 2123.8 561.9C2127.1 563.6 2130.6 564.8 2135 566C2137.5 566.6 2141.1 567.6 2143 568.2C2144.9 568.7 2148.2 569.4 2150.3 569.7C2152.3 570 2154.3 570.6 2154.6 571.1C2154.9 571.6 2157.3 572 2160 572C2162.7 572 2165.2 572.5 2165.5 573C2165.9 573.6 2174.3 574 2187.5 574C2200.7 574 2209.1 573.6 2209.5 573C2209.8 572.5 2212.1 572 2214.6 572C2217 572 2219 571.6 2219 571C2219 570.5 2220.5 570 2222.4 570C2224.3 570 2226.2 569.6 2226.5 569C2226.8 568.5 2228.2 568 2229.5 568C2230.8 568 2232.1 567.6 2232.4 567.1C2232.8 566.6 2234.8 565.9 2237 565.5C2239.2 565.1 2241.2 564.4 2241.6 563.9C2241.9 563.4 2243 563 2244.1 563C2245.1 563 2246 562.6 2246 562C2246 561.5 2246.9 561 2248 561C2249.1 561 2250 560.6 2250 560C2250 559.5 2250.9 559 2252 559C2253.1 559 2254 558.7 2254 558.2C2254 557.8 2255.5 556.9 2257.3 556.1C2259 555.3 2260.7 554.4 2261 554.1C2261.8 553.2 2269.3 548.9 2271.3 548.3C2272.2 548 2273 547.4 2273 546.9C2273 546.4 2273.7 546 2274.5 546C2275.3 546 2276 545.6 2276 545.2C2276 544.8 2277.3 543.7 2278.9 542.7C2280.5 541.8 2283.2 539.7 2285 538C2286.8 536.4 2288.5 535 2288.9 535C2289.5 535 2294.5 530.5 2306.5 519.1C2309.3 516.5 2313.1 512.5 2315 510.2C2318.4 506.2 2321.2 505 2322.5 507C2322.8 507.6 2324 508 2325.1 508C2326.1 508 2327 508.5 2327 509C2327 509.6 2328.1 510 2329.5 510C2330.9 510 2332 510.5 2332 511C2332 511.6 2332.9 512 2334 512C2335.1 512 2336 512.5 2336 513C2336 513.6 2336.9 514 2337.9 514C2339 514 2340.2 514.5 2340.5 515C2340.8 515.6 2341.8 516 2342.7 516C2344.1 516 2349.3 518 2353.2 520.1C2354.2 520.6 2355.7 521 2356.5 521C2357.3 521 2358 521.5 2358 522C2358 522.6 2358.9 523 2359.9 523C2361 523 2362.2 523.5 2362.5 524C2362.8 524.6 2364 525 2365.1 525C2366.1 525 2367 525.5 2367 526C2367 526.6 2367.9 527 2369 527C2370.1 527 2371 527.5 2371 528C2371 528.6 2372.1 529 2373.5 529C2374.9 529 2376 529.5 2376 530C2376 530.6 2376.9 531 2377.9 531C2379 531 2380.1 531.4 2380.4 531.9C2380.7 532.4 2382.2 533.1 2383.7 533.4C2386.2 534 2392.2 536.5 2397.2 539.1C2398.2 539.6 2399.7 540 2400.5 540C2401.3 540 2402 540.5 2402 541C2402 541.6 2402.9 542 2403.9 542C2405 542 2406.2 542.5 2406.5 543C2406.8 543.6 2408 544 2409.1 544C2410.1 544 2411 544.5 2411 545C2411 545.6 2411.9 546 2412.9 546C2414 546 2415.2 546.5 2415.5 547C2415.8 547.6 2416.8 548 2417.5 548C2418.8 548 2427.6 551.7 2432.2 554.1C2433.2 554.6 2434.7 555 2435.5 555C2436.3 555 2437 555.5 2437 556C2437 556.6 2437.9 557 2438.9 557C2440 557 2441.2 557.5 2441.5 558C2441.8 558.6 2443 559 2444.1 559C2445.1 559 2446 559.5 2446 560C2446 560.6 2446.7 561 2447.5 561C2448.3 561 2449.8 561.4 2450.8 561.9C2452.7 563 2457.8 565.1 2463 567C2464.9 567.7 2466.9 568.7 2467.5 569.2C2468 569.6 2469.2 570 2470.2 570C2471.2 570 2472 570.5 2472 571C2472 571.6 2472.9 572 2473.9 572C2475 572 2476.2 572.5 2476.5 573C2476.8 573.6 2478 574 2479.1 574C2480.1 574 2481 574.5 2481 575C2481 575.6 2482 576 2483.1 576C2485.2 576 2485.2 576.1 2483.6 578.5C2480.6 583.1 2475.9 591.5 2475.3 593.3C2475 594.2 2474.4 595 2473.9 595C2473.4 595 2473 595.5 2473 596.1C2473 596.7 2471.7 599.1 2470 601.5C2468.4 603.9 2467 606.1 2467 606.4C2467 607.1 2450.4 632.7 2448.7 634.6C2446.5 637.1 2445.4 638.5 2444.4 640.1C2443.4 642 2438.6 648 2435 652.1C2424.5 664.1 2421.8 667 2416.4 672.4C2405.8 683.1 2397.4 690.5 2387 698.3C2384 700.6 2380.9 703 2380.2 703.7C2379.5 704.4 2377.6 705.7 2376 706.7C2374.3 707.6 2373 708.8 2373 709.2C2373 709.6 2372.4 710 2371.7 710C2371 710 2369.5 710.8 2368.4 711.8C2366.5 713.4 2362 716.1 2357.3 718.4C2356 719 2355 719.8 2355 720.3C2355 720.7 2354.3 721 2353.5 721C2352.7 721 2352 721.3 2352 721.8C2352 722.2 2350.5 723.1 2348.8 723.9C2347 724.7 2345.3 725.6 2345 726C2344.7 726.3 2341.8 727.8 2338.5 729.4C2335.2 730.9 2329.8 733.5 2326.6 735.1C2323.4 736.7 2320.1 738 2319.4 738C2318.6 738 2318 738.5 2318 739C2318 739.6 2317.3 740 2316.5 740C2315.7 740 2314.2 740.4 2313.2 740.9C2312.3 741.4 2310.3 742.3 2308.8 742.9C2307.2 743.5 2305 744.4 2303.8 744.9C2302.5 745.4 2298.8 746.6 2295.5 747.5C2292.2 748.4 2288.7 749.6 2287.8 750.1C2286.8 750.6 2285.1 751 2284.1 751C2283 751 2281.8 751.5 2281.5 752C2281.2 752.6 2279.6 753 2278 753C2276.4 753 2274.8 753.5 2274.5 754C2274.2 754.6 2272.6 755 2271 755C2269.4 755 2267.8 755.5 2267.5 756C2267.2 756.6 2265.4 757 2263.5 757C2261.6 757 2259.8 757.5 2259.5 758C2259.2 758.6 2257.2 759 2255.1 759C2253.1 759 2251 759.4 2250.5 759.9C2249.9 760.4 2247.5 761.1 2245 761.4C2242.5 761.7 2235.1 762.6 2228.5 763.5C2221.9 764.3 2210.2 765.5 2202.5 766C2194.8 766.5 2185.1 767.4 2181 767.9C2171.2 769.2 2167 769.1 2158.5 767.5V767.5ZM2291.8 298.1C2292 295.7 2291.6 293.2 2291.1 292.7C2290.5 292.1 2290 289 2290 285.9C2290 282.7 2289.6 279.8 2289 279.5C2288.5 279.2 2288 277.1 2288 275C2288 272.9 2287.6 270.8 2287 270.5C2286.5 270.2 2286 268.9 2286 267.8C2286 265.5 2284.3 259.7 2282.9 256.8C2282.4 255.8 2282 254.2 2282 253.2C2282 252.2 2281.6 251 2281.2 250.5C2280.8 249.9 2279.6 247 2278.5 244C2277.5 241 2275.6 236.7 2274.3 234.5C2273 232.3 2271.7 229.7 2271.3 228.8C2271 227.8 2270.4 227 2269.9 227C2269.4 227 2269 226.3 2269 225.5C2269 224.7 2268.6 224 2268.2 224C2267.7 224 2266.8 222.9 2266.2 221.6C2264.7 218.3 2261.8 214.8 2254 207C2245.1 198.2 2237.3 192.5 2229.3 188.9C2227.5 188.2 2226 187.2 2226 186.8C2226 186.3 2224.9 186 2223.5 186C2222.1 186 2221 185.6 2221 185C2221 184.5 2220.1 184 2219.1 184C2218 184 2216.8 183.6 2216.5 183C2216.2 182.5 2215 182 2213.9 182C2212.9 182 2211.2 181.6 2210.2 181.1C2199.8 175.6 2142.2 175.6 2131.8 181.1C2130.8 181.6 2129.1 182 2128.1 182C2127 182 2125.8 182.5 2125.5 183C2125.2 183.6 2123.8 184 2122.4 184C2121.1 184 2120 184.5 2120 185C2120 185.6 2118.9 186 2117.5 186C2116.1 186 2115 186.5 2115 187C2115 187.6 2114.1 188 2113.1 188C2112 188 2111 188.3 2110.8 188.8C2110.7 189.2 2108.5 190.5 2106.1 191.8C2099.3 195.3 2095.6 197.4 2094.4 198.5C2093.8 199.1 2091.8 200.6 2090 202C2085 205.7 2070.7 220 2068 224C2066.7 225.9 2065.3 227.7 2065 228C2062 230.4 2049 253.7 2049 256.6C2049 257.4 2048.6 258 2048 258C2047.5 258 2047 258.9 2047 260C2047 261.1 2046.6 262 2046 262C2045.5 262 2045 262.9 2045 264C2045 265.1 2044.6 266.8 2044.1 267.8C2040.6 274.6 2037.2 287.7 2036.3 297.8L2035.8 303L2163.7 302.8L2291.5 302.5L2291.8 298.1V298.1Z" fill="black"/>
<path d="M835 762.4C834.2 762.2 826.5 761.6 818 761C809.5 760.4 799.4 759.6 795.5 759C791.7 758.5 786.3 757.8 783.5 757.4C780.8 757.1 778.1 756.4 777.6 755.9C777 755.4 774.7 755 772.3 755C769.9 755 768 754.6 768 754C768 753.5 766.2 753 764.1 753C761.9 753 759.8 752.6 759.5 752C759.2 751.5 757.6 751 756 751C754.4 751 752.8 750.6 752.5 750C752.2 749.5 750.9 749 749.8 749C747.4 749 737.4 746.3 734.8 744.9C733.8 744.4 732.3 744 731.5 744C730.7 744 729.2 743.6 728.2 743.1C726.4 742.2 722.4 740.5 718 738.7C716.6 738.2 714.7 737.4 713.8 736.9C712.8 736.4 711.3 736 710.5 736C709.7 736 709 735.6 709 735C709 734.5 708.3 734 707.5 734C706.7 734 705.2 733.6 704.2 733.1C703.3 732.6 697.1 729.6 690.5 726.4C683.9 723.2 678.3 720.3 678 720C677.7 719.7 675 718.2 672 716.6C663.7 712.1 638.8 695.5 634.4 691.5C633.8 691 631.8 689.4 630 688C616.2 677.8 582.1 644.5 583.7 642.9C584.2 642.4 590.2 640.2 597.1 638.1C622.8 630.2 680.8 607.9 708.5 595.3C714.6 592.5 720.6 589.9 721.9 589.5C723.2 589.1 728 587 732.6 584.9C737.2 582.7 744.9 579.2 749.6 577C754.3 574.8 758.4 573 758.5 573C760.6 573 864.4 521.1 868.5 518C869.1 517.6 874.9 514.5 881.5 511C945.9 477.1 1050.4 412.4 1106.5 371.6C1135.5 350.5 1174.1 320.7 1182.3 313.2C1186.8 308.9 1187.1 309.5 1190 333C1190.5 337.1 1191.5 349.8 1192.1 361.2C1193.9 393 1191.6 427.9 1186 456C1185.4 459 1184.7 463.3 1184.3 465.5C1184 467.7 1183.4 469.9 1182.9 470.4C1182.4 471 1182 472.9 1182 474.6C1182 476.4 1181.6 478.2 1181 478.5C1180.5 478.8 1180 480.2 1180 481.6C1180 483 1179.3 486.5 1178.4 489.3C1177.6 492.2 1176.4 496.3 1175.8 498.5C1175.3 500.7 1174.4 503.3 1173.9 504.2C1173.4 505.2 1173 506.9 1173 507.9C1173 509 1172.6 510.2 1172 510.5C1171.5 510.8 1171 512.2 1171 513.6C1171 514.9 1170.6 516 1170 516C1169.5 516 1169 516.9 1169 518C1169 519.1 1168.6 520.8 1168.1 521.8C1167 524 1166 526.4 1161.5 538C1159.5 543.1 1142.9 577.2 1142.1 578C1141.5 578.5 1140.7 579.8 1136.8 586.9C1135.7 588.9 1130.9 596.3 1126.2 603.4C1115.4 619.4 1115 620 1112.3 623C1111 624.4 1110 625.8 1110 626.1C1110 626.4 1108.8 628 1107.4 629.6C1106 631.2 1103.2 634.5 1101.2 637C1091.4 649 1067.9 672.3 1056.5 681.5C1053.7 683.7 1051 685.9 1050.4 686.5C1049.8 687 1047.8 688.6 1046 690C1044.2 691.4 1042.2 693 1041.6 693.5C1041 694.1 1038.5 695.9 1036 697.5C1033.5 699.2 1031.4 700.8 1031.2 701.3C1031 701.7 1030.2 702 1029.4 702C1028.6 702 1028 702.5 1028 703C1028 703.6 1027.3 704 1026.5 704C1025.7 704 1025 704.5 1025 705C1025 705.6 1024.3 706 1023.5 706C1022.7 706 1022 706.5 1022 707C1022 707.6 1021.3 708 1020.5 708C1019.7 708 1019 708.5 1019 709C1019 709.6 1018.5 710 1017.9 710C1017.3 710 1015.6 710.8 1014.2 711.9C1011.4 713.8 1004.6 717.7 997.5 721.4C995.3 722.6 993.3 723.7 993 724C992.3 724.8 978.2 731.5 974 733C972.1 733.7 970.1 734.7 969.5 735.2C969 735.6 967.8 736 966.8 736C965.8 736 965 736.5 965 737C965 737.6 964.1 738 963 738C961.9 738 960.2 738.4 959.2 738.9C958.3 739.4 956.4 740.2 955 740.7C953.6 741.3 951.4 742.2 950 742.8C946.4 744.4 939.4 746.5 933 748.1C930 748.8 927.1 749.7 926.5 750.2C926 750.6 924.1 751 922.4 751C920.6 751 918.8 751.5 918.5 752C918.2 752.6 916.4 753 914.5 753C912.6 753 910.8 753.5 910.5 754C910.2 754.6 908.1 755 906 755C903.9 755 901.8 755.5 901.5 756C901.2 756.6 898.7 757 896.1 757C893.5 757 891 757.4 890.5 757.9C889.4 758.9 884.7 759.4 862.1 760.9C854.2 761.4 845.2 762.1 842.1 762.3C839 762.6 835.8 762.6 835 762.4V762.4Z" fill="black"/>
<path d="M1199 520.2V300.4L1208.7 290.9C1242.4 258.3 1254.4 246.1 1263.7 235C1281.6 213.7 1291.2 198.8 1297.2 182.9C1300 175.4 1300.4 173.3 1300.4 164C1300.5 155 1300.1 152.9 1298.2 149.2C1290.3 134.3 1273.6 128 1242 128C1232.9 128 1223.7 128.4 1221.5 128.9C1219.3 129.4 1213.3 130.1 1208.3 130.5L1199 131.2V83.1V35H1300H1401V77.5C1401 113 1401.2 120 1402.4 120C1403.1 120 1404 119.2 1404.3 118.3C1405 116.1 1408 111.2 1410 109C1410.8 108.1 1413.4 105.1 1415.7 102.3C1421.3 95.7 1453.3 63.6 1459.4 58.5C1462.1 56.3 1465.3 53.5 1466.5 52.3C1469.3 49.6 1478.3 43.8 1482.8 41.9C1484.5 41.1 1486 40.2 1486 39.8C1486 39.3 1486.9 39 1487.9 39C1489 39 1490.2 38.6 1490.5 38C1490.8 37.5 1492 37 1493.1 37C1494.1 37 1495 36.6 1495 36C1495 35.5 1495.8 35 1496.8 35C1497.8 35 1499 34.6 1499.5 34.2C1500.1 33.7 1504.6 32.1 1509.5 30.6C1514.5 29 1519.3 27.4 1520.2 26.9C1521.2 26.4 1523.1 26 1524.4 26C1525.8 26 1527.2 25.6 1527.5 25C1527.8 24.5 1529.7 24 1531.6 24C1533.5 24 1535 23.6 1535 23C1535 22.5 1536.9 22 1539.3 22C1541.7 22 1544 21.6 1544.5 21.1C1547.9 17.9 1626 17.9 1629.5 21.1C1630 21.6 1632.8 22 1635.6 22C1638.5 22 1641.2 22.5 1641.5 23C1641.8 23.6 1643.9 24 1646 24C1648.1 24 1650.2 24.5 1650.5 25C1650.8 25.6 1652.4 26 1654.1 26C1655.7 26 1657.8 26.4 1658.8 26.9C1659.7 27.4 1663.2 28.5 1666.5 29.4C1669.8 30.4 1673.6 31.6 1675 32.2C1676.4 32.8 1678.4 33.6 1679.5 34C1684.2 35.7 1699.9 43.7 1704.8 46.7C1707.7 48.5 1710.5 50 1711 50C1711.6 50 1712 50.5 1712 51C1712 51.6 1712.7 52 1713.5 52C1714.3 52 1715 52.5 1715 53C1715 53.6 1715.4 54 1716 54C1716.9 54 1718.8 55.3 1722.4 58.5C1723 59.1 1725.3 60.8 1727.5 62.5C1732.2 66 1751.9 85.7 1757.1 92.1C1762.4 98.6 1774 115.7 1774 116.9C1774 117.5 1774.3 118 1774.8 118C1775.2 118 1776 119 1776.6 120.3C1781.3 129.8 1787.6 141.6 1788.3 141.8C1788.7 142 1789 143 1789 144.1C1789 145.1 1789.5 146 1790 146C1790.6 146 1791 146.8 1791 147.8C1791 148.8 1791.4 150 1791.9 150.5C1792.3 151.1 1793.5 153.8 1794.5 156.5C1796.5 162.3 1797.9 165.8 1799.1 168.2C1799.6 169.2 1800 170.9 1800 172C1800 173.1 1800.5 174 1801 174C1801.6 174 1802 175.1 1802 176.4C1802 177.8 1802.5 179.2 1803 179.5C1803.6 179.8 1804 181.2 1804 182.5C1804 183.8 1804.5 185.2 1805 185.5C1805.6 185.8 1806 187.4 1806 189C1806 190.6 1806.5 192.2 1807 192.5C1807.6 192.8 1808 194.4 1808 195.9C1808 197.4 1808.3 199 1808.8 199.4C1809.7 200.3 1811.9 210.6 1812.7 217.8C1813 220.7 1813.6 223.3 1814.1 223.6C1814.6 223.9 1815 226.3 1815 229C1815 231.7 1815.5 234.2 1816 234.5C1816.6 234.8 1817 238.2 1817 242C1817 245.8 1817.5 249.2 1818 249.5C1818.7 249.9 1819 332.8 1819 495.1V740H1711.4H1603.8L1604.4 556.8C1604.7 456 1605 372.2 1605.1 370.5C1605.2 368.9 1605 350 1604.7 328.5C1604.1 294.3 1603.8 288.6 1602.1 282.5C1599.7 273.7 1596.7 265.6 1595.8 265.2C1595.3 265 1595 264 1595 262.9C1595 261.9 1594.7 261 1594.2 261C1593.8 261 1592.9 259.7 1592.2 258.2C1591.6 256.6 1590.1 254.4 1589 253.2C1587.9 252 1587 250.7 1587 250.3C1587 249.9 1585.9 248.2 1584.5 246.6C1583.1 245 1582 243.4 1582 243.1C1582 242.8 1579.6 240 1576.7 237C1571.1 231 1563.5 225.2 1558.3 222.9C1556.5 222.2 1555 221.2 1555 220.8C1555 220.3 1554.3 220 1553.5 220C1552.7 220 1551.1 219.5 1550 219C1548.9 218.5 1547.1 217.6 1546 217C1544.9 216.4 1542.9 216 1541.5 216C1540.1 216 1539 215.6 1539 215C1539 214.5 1537.9 214 1536.5 214C1535.1 214 1533.2 213.6 1532.2 213.1C1523 208.3 1489.4 209.6 1478.8 215.1C1477.8 215.6 1476.5 216 1476 216C1473.3 216 1451.8 227.5 1450 229.9C1449.7 230.3 1447.3 232.3 1444.7 234.4C1440.6 237.7 1437.4 241.3 1428.4 252.3C1427.6 253.2 1427 254.4 1427 254.9C1427 255.4 1426.6 256 1426.2 256.2C1425.8 256.4 1423.6 260.3 1421.3 265C1417.6 272.8 1416.3 276.6 1413.1 288.6C1412.3 291.5 1412 358.4 1412 516.4V740H1305.5H1199V520.2V520.2Z" fill="black"/>
<path d="M2382 739C2382 738.5 2382.5 738 2383 738C2383.6 738 2384 737.4 2384 736.8C2384 736.1 2384.9 734.4 2386.1 733C2387.2 731.6 2389.7 728 2391.8 725C2393.8 722 2396.3 718.6 2397.2 717.6C2398.2 716.5 2399 715.1 2399 714.4C2399 713.7 2399.4 713 2399.8 712.8C2400.3 712.7 2404.2 707.3 2408.6 701C2412.9 694.7 2417.2 688.6 2418.2 687.6C2419.2 686.5 2420 685.2 2420 684.7C2420 684.2 2421.1 682.4 2422.5 680.6C2423.9 678.9 2425.4 677 2425.9 676.4C2426.3 675.9 2427.3 674.3 2428 672.9C2428.7 671.6 2429.6 670.3 2430 670C2430.3 669.7 2434.1 664.3 2438.4 658C2442.7 651.7 2447.1 645.6 2448.1 644.4C2449.2 643.3 2450 641.8 2450 641.2C2450 640.5 2450.3 640 2450.8 640C2451.2 640 2453.3 637.2 2455.5 633.7C2457.7 630.3 2460.3 626.6 2461.2 625.6C2462.2 624.5 2463 623.1 2463 622.4C2463 621.7 2463.4 621 2463.8 620.8C2464.3 620.7 2466.1 618.3 2468 615.5C2469.8 612.8 2471.6 610.3 2472 610C2472.3 609.7 2473.9 607.4 2475.5 604.8C2477.2 602.1 2478.8 600 2479.3 600C2479.7 600 2480 599.4 2480 598.6C2480 597.8 2480.4 597 2480.8 596.8C2481.3 596.7 2485.6 590.7 2490.5 583.5C2495.4 576.4 2499.7 570.3 2500 570C2500.3 569.7 2502.4 566.8 2504.5 563.5C2506.7 560.2 2508.8 557.4 2509.2 557.2C2509.7 557 2510 556.3 2510 555.6C2510 554.9 2510.8 553.5 2511.8 552.4C2512.9 551.3 2517.2 545.3 2521.6 539C2525.9 532.7 2530.2 526.6 2531.2 525.6C2532.2 524.5 2533 523.2 2533 522.7C2533 522.2 2534.1 520.4 2535.5 518.6C2536.9 516.9 2538.4 515 2538.9 514.4C2539.3 513.9 2540.3 512.3 2541 511C2541.7 509.7 2543.1 507.7 2544.1 506.6C2545.2 505.5 2546 504.1 2546 503.4C2546 502.7 2546.4 502 2546.8 501.8C2547.3 501.7 2550.3 497.7 2553.5 493C2556.7 488.3 2560.1 483.6 2561.1 482.4C2562.2 481.3 2563 480 2563 479.6C2563 479.2 2563.9 478 2565 476.8C2566.1 475.6 2567 474 2567 473.3C2567 472.6 2567.4 472 2567.8 472C2568.2 472 2569.4 470.5 2570.5 468.8C2571.5 467 2573.2 464.6 2574.2 463.6C2575.2 462.5 2576 461.1 2576 460.4C2576 459.7 2576.4 459 2576.8 458.8C2577.3 458.7 2579.1 456.3 2581 453.5C2582.8 450.8 2584.6 448.3 2585 448C2585.3 447.7 2586.9 445.4 2588.5 442.8C2590.2 440.1 2591.8 438 2592.3 438C2592.7 438 2593 437.4 2593 436.7C2593 435.9 2593.9 434.5 2595 433.5C2596.1 432.5 2597 431.1 2597 430.4C2597 429.7 2597.3 429 2597.8 428.8C2598.9 428.3 2606 418.1 2606 417C2606 416.4 2606.3 416 2606.8 416C2607.2 416 2608.6 414.2 2610 412C2611.4 409.8 2612.8 408 2613.2 408C2613.7 408 2614 407.3 2614 406.5C2614 405.7 2614.5 405 2615 405C2615.6 405 2616 404.5 2616 403.9C2616 402.9 2617.3 401 2622 395.3C2622.6 394.6 2623 393.7 2623 393.2C2623 392.8 2623.8 391.5 2624.8 390.4C2626.8 388.2 2640 369.2 2640 368.4C2640 367.9 2634.8 359.7 2633.9 359C2633.6 358.7 2631.9 356.3 2630 353.5C2628.1 350.8 2626.4 348.3 2626.1 348C2625.8 347.7 2624.9 346.3 2624.1 344.8C2623.3 343.2 2622.3 342 2621.8 342C2621.4 342 2621 341.6 2621 341C2621 339.9 2613.9 329.7 2612.8 329.2C2612.3 329 2612 328.3 2612 327.6C2612 326.9 2611.1 325.5 2610 324.5C2608.9 323.5 2608 322.1 2608 321.4C2608 320.7 2607.7 320 2607.2 319.8C2606.8 319.7 2604.7 316.8 2602.5 313.5C2600.4 310.2 2597.8 306.6 2596.8 305.6C2595.8 304.5 2595 303.1 2595 302.4C2595 301.7 2594.6 301 2594.1 300.8C2593.7 300.7 2591.7 298.2 2589.9 295.4C2583.7 286 2573.6 271.5 2572.4 270.2C2571.7 269.6 2570.8 268.1 2570.5 267C2570.2 265.9 2569.5 265 2569.2 265C2568.8 265 2567.6 263.4 2566.6 261.5C2565.5 259.6 2564.3 258 2563.8 258C2563.4 258 2563 257.4 2563 256.7C2563 256 2562.1 254.4 2561 253.3C2559.1 251.2 2553.3 242.7 2549.6 236.6C2548.6 234.9 2547.5 233.3 2547.1 233C2546.7 232.7 2542.8 227.3 2538.5 221C2534.2 214.7 2530.3 209.4 2529.8 209.2C2529.4 209 2529 208.3 2529 207.7C2529 207 2527.9 205.2 2526.5 203.6C2525.2 202 2523.8 199.9 2523.5 198.9C2523.1 197.8 2522.5 197 2522.2 197C2521.8 197 2520.6 195.4 2519.6 193.5C2518.5 191.6 2517.3 190 2516.8 190C2516.4 190 2516 189.4 2516 188.7C2516 188 2515.2 186.5 2514.2 185.4C2512.6 183.7 2505.1 173.1 2502.5 168.9C2501.3 167 2493 155 2491.8 153.5C2491.4 153 2489.3 150 2487.3 147C2485.3 144 2483.3 141.4 2482.8 141.2C2482.4 141 2482 140.3 2482 139.6C2482 138.9 2481.2 137.5 2480.3 136.4C2479.3 135.3 2478.1 133.7 2477.5 132.8C2473.5 126.6 2470.6 122.4 2470.1 122C2469.8 121.7 2468.9 120.3 2468.1 118.8C2467.3 117.2 2466.3 116 2465.8 116C2465.4 116 2465 115.4 2465 114.6C2465 113.8 2464.6 113 2464.2 112.8C2463.7 112.7 2461.1 109.1 2458.4 105C2455.7 100.9 2453.2 97.3 2452.9 97C2452.6 96.7 2450.8 94.3 2449 91.5C2447.1 88.8 2445.3 86.4 2444.8 86.2C2444.4 86 2444 85.5 2444 85C2444 83.9 2432.8 67.6 2431.8 67.2C2431.4 67 2431 66.2 2431 65.4C2431 64.6 2430.6 64 2430.2 64C2429.7 64 2428.7 62.8 2427.9 61.2C2427.1 59.7 2426.3 58.3 2426 58C2425.7 57.7 2424.1 55.5 2422.5 53C2420.8 50.5 2419.2 48.3 2418.8 48.2C2418.3 48 2418 47.2 2418 46.4C2418 45.6 2417.6 45 2417.2 45C2416.7 45 2415.7 43.8 2414.9 42.3C2414.1 40.7 2412.7 38.8 2411.8 37.9C2410.8 37 2410 36 2410 35.6C2410 35.3 2464.4 35 2530.9 35H2651.8L2654.1 38.1C2655.4 39.8 2657.5 42.5 2658.8 44C2660 45.5 2661 47.2 2661 47.7C2661 48.2 2661.8 49.5 2662.8 50.6C2663.8 51.6 2665.6 54.1 2667 56C2668.3 57.9 2669.7 59.7 2670 60C2670.4 60.3 2673.3 64.3 2676.5 69C2679.7 73.7 2682.6 77.7 2683 78C2683.3 78.3 2686.7 83 2690.5 88.5C2694.3 94 2697.6 98.7 2698 99C2698.3 99.3 2699.7 101.1 2701 103C2703.8 107 2704.1 107.4 2707.5 111.6C2708.9 113.4 2710 115.2 2710 115.7C2710 116.2 2710.8 117.5 2711.8 118.6C2714.8 122.1 2719.5 128.3 2725.5 137C2728.8 141.7 2732.2 146.4 2733.2 147.4C2734.2 148.5 2735 150 2735 150.7C2735 151.4 2735.3 152 2735.8 152C2736.2 152 2737.9 154 2739.5 156.5C2741.2 158.9 2742.8 161 2743.3 161C2743.7 161 2744 161.6 2744 162.3C2744 163 2744.8 164.5 2745.8 165.6C2746.7 166.6 2749.8 170.7 2752.5 174.5C2755.2 178.4 2757.8 181.6 2758.2 181.8C2758.6 182 2759 182.6 2759 183.1C2759 184.1 2763.4 190 2767.3 194.4C2768.2 195.5 2769 196.8 2769 197.3C2769 197.7 2769.6 198.7 2770.3 199.4C2770.9 200.2 2772.2 201.8 2773 203C2778.2 210.7 2780.2 211.7 2782.2 207.5C2782.8 206.1 2783.6 205 2784 205C2784.4 205 2785.3 203.6 2786 202C2786.7 200.3 2787.6 199 2788.1 199C2788.6 199 2789 198.3 2789 197.5C2789 196.7 2789.5 196 2790 196C2790.6 196 2791 195.3 2791 194.5C2791 193.7 2791.5 193 2792 193C2792.6 193 2793 192.3 2793 191.5C2793 190.7 2793.4 190 2793.8 190C2794.3 190 2795.5 188.2 2796.5 186C2797.5 183.8 2798.7 182 2799.2 182C2799.6 182 2800 181.4 2800 180.7C2800 180 2800.9 178.4 2802 177.2C2803.1 176 2804 174.8 2804 174.5C2804 174.2 2804.9 173 2806 171.8C2807.1 170.6 2808 169 2808 168.3C2808 167.6 2808.4 167 2808.9 167C2809.4 167 2810.5 165.5 2811.4 163.8C2813.5 159.6 2815.2 156.9 2816.8 155.2C2817.4 154.5 2818 153.5 2818 153.1C2818 152.7 2819.1 151 2820.5 149.4C2821.9 147.8 2823 145.9 2823 145.3C2823 144.6 2823.5 144 2824 144C2824.6 144 2825 143.5 2825 143C2825 142.4 2825.5 141.4 2826 140.7C2826.6 140 2828.6 137 2830.5 134C2832.4 131 2834.4 128 2835 127.3C2835.5 126.6 2836 125.6 2836 125C2836 124.5 2836.4 124 2836.8 124C2837.3 124 2838.3 122.8 2839.1 121.3C2839.9 119.7 2841.3 117.6 2842.3 116.6C2843.2 115.5 2844 114.1 2844 113.5C2844 112.8 2844.8 111.6 2845.8 110.7C2846.7 109.8 2848.4 107.4 2849.5 105.3C2850.6 103.2 2852.3 100.6 2853.3 99.6C2854.2 98.5 2855 97 2855 96.3C2855 95.6 2855.5 95 2856 95C2856.6 95 2857 94.3 2857 93.5C2857 92.7 2857.4 92 2857.8 92C2858.3 92 2859.3 90.8 2860.1 89.3C2861.7 86 2865.5 80 2867 78.3C2867.5 77.6 2868 76.6 2868 76C2868 75.5 2868.4 75 2868.8 75C2869.3 75 2870.3 73.8 2871.1 72.3C2871.9 70.7 2873.3 68.6 2874.3 67.6C2875.2 66.5 2876 65.1 2876 64.5C2876 63.8 2876.8 62.6 2877.8 61.7C2878.7 60.8 2880.4 58.4 2881.5 56.3C2882.6 54.2 2884.3 51.6 2885.3 50.6C2886.2 49.5 2887 48 2887 47.3C2887 46.6 2887.5 46 2888 46C2888.6 46 2889 45.4 2889 44.6C2889 43.8 2889.4 43 2889.9 42.8C2890.4 42.6 2891.7 40.9 2892.7 39L2894.7 35.5L3013.9 35.2L3133.1 35L3127.8 42.6C3124.9 46.8 3122.1 51 3121.5 51.9C3121 52.8 3120.2 53.7 3119.9 54C3119.5 54.3 3118.4 55.9 3117.4 57.6C3114.5 62.4 3107.8 72.4 3107.1 73C3106.8 73.3 3105.9 74.7 3105.1 76.2C3104.3 77.8 3103.3 79 3102.8 79C3102.4 79 3102 79.6 3102 80.4C3102 81.2 3101.7 82 3101.2 82.2C3100.8 82.3 3098.2 85.9 3095.6 90C3092.9 94.1 3090.3 97.7 3089.8 97.8C3089.4 98 3089 98.8 3089 99.6C3089 100.4 3088.6 101 3088.2 101C3087.7 101 3086.7 102.2 3085.9 103.8C3085.1 105.3 3083.7 107.4 3082.8 108.4C3081.8 109.5 3081 110.8 3081 111.3C3081 112 3076.6 118.4 3075 120C3074.7 120.3 3073.9 121.7 3073.1 123.3C3072.3 124.8 3071.3 126 3070.8 126C3070.4 126 3070 126.6 3070 127.4C3070 128.2 3069.7 129 3069.2 129.2C3068.6 129.4 3060.1 141.7 3053.5 151.9C3053 152.7 3051.7 154.3 3050.8 155.4C3049.8 156.5 3049 157.8 3049 158.3C3049 158.8 3047.9 160.6 3046.5 162.4C3042.9 166.8 3042.7 167.2 3041.1 170.2C3040.3 171.8 3039.3 173 3038.8 173C3038.4 173 3038 173.7 3038 174.5C3038 175.3 3037.7 176 3037.2 176C3036.8 176 3036 176.9 3035.5 177.9C3034.9 179 3031.8 183.8 3028.5 188.6C3025.2 193.4 3022.1 198.1 3021.5 198.9C3021 199.8 3020.2 200.7 3019.9 201C3019.5 201.3 3018.4 202.9 3017.4 204.6C3013.3 211.4 3007.7 219.5 3006.9 219.8C3006.4 220 3006 220.8 3006 221.6C3006 222.4 3005.7 223 3005.2 223C3004.8 223 3004 223.9 3003.5 224.9C3001.5 228.7 2990.7 244.5 2989.9 244.8C2989.4 245 2989 245.8 2989 246.6C2989 247.4 2988.6 248 2988.2 248C2987.7 248 2986.7 249.2 2985.9 250.7C2983.9 254.6 2975.7 266.4 2974.8 266.8C2974.4 267 2974 267.6 2974 268.2C2974 268.8 2972.8 270.9 2971.3 272.9C2969.7 274.9 2966.3 279.9 2963.6 284C2960.9 288.1 2958.4 291.7 2957.9 291.8C2957.4 292 2957 292.7 2957 293.4C2957 294.1 2956.1 295.5 2955 296.5C2953.9 297.5 2953 298.7 2953 299.1C2953 300.1 2943.8 313.4 2942.8 313.8C2942.4 314 2942 314.7 2942 315.4C2942 316.1 2941.1 317.6 2940 318.8C2938.9 319.9 2937.2 322.2 2936.3 323.8C2932.1 330.7 2926.7 338.5 2925.9 338.8C2925.4 339 2925 339.7 2925 340.4C2925 341.1 2924.1 342.5 2923 343.5C2921.9 344.5 2921 345.7 2921 346.1C2921 347.2 2907.8 366.4 2906.8 366.8C2905.7 367.3 2905.8 374 2906.9 374C2907.4 374 2908.2 374.9 2908.5 376C2908.8 377.1 2909.7 378.6 2910.5 379.3C2911.8 380.7 2918 389.8 2921.4 395.4C2922.4 397.1 2923.6 398.7 2924.1 398.8C2924.6 399 2925 399.8 2925 400.5C2925 401.2 2925.4 402 2925.9 402.2C2926.4 402.4 2929.4 406.6 2932.6 411.5C2935.8 416.5 2939.2 421.4 2940.2 422.4C2941.2 423.5 2942 424.9 2942 425.6C2942 426.3 2942.4 427 2942.9 427.2C2943.6 427.5 2949.6 436 2952.5 441C2953.1 442 2954.2 443.6 2955 444.5C2955.8 445.4 2956.9 447 2957.5 448C2960.1 452.4 2968.6 464.5 2969.3 464.8C2969.7 465 2970 465.8 2970 466.6C2970 467.4 2970.5 468 2971 468C2971.6 468 2972 468.7 2972 469.5C2972 470.3 2972.5 471 2973 471C2973.6 471 2974 471.7 2974 472.5C2974 473.3 2974.4 474 2974.8 474C2975.3 474 2976.3 475.2 2977.1 476.8C2978.7 479.8 2978.9 480.2 2982.5 484.6C2983.9 486.4 2985 488.2 2985 488.7C2985 489.2 2985.8 490.5 2986.8 491.6C2987.7 492.7 2989 494.3 2989.5 495.2C2993.3 501 3000.7 511.7 3001.7 512.8C3002.3 513.4 3003.2 514.9 3003.5 516C3003.8 517.1 3004.6 518 3005.1 518C3005.6 518 3006 518.7 3006 519.5C3006 520.3 3006.4 521 3006.8 521C3007.3 521 3008.3 522.2 3009.1 523.8C3009.9 525.3 3010.7 526.7 3011 527C3011.5 527.5 3013.3 530.1 3017 535.5C3026.8 550.2 3032.7 558.7 3033.7 559.8C3034.3 560.4 3035.2 561.9 3035.5 563C3035.8 564.1 3036.6 565 3037.1 565C3037.6 565 3038 565.7 3038 566.5C3038 567.3 3038.4 568 3038.8 568C3039.3 568 3040.3 569.2 3041.1 570.8C3041.9 572.3 3042.7 573.7 3043 574C3043.7 574.6 3048 580.6 3049.5 583.1C3052.5 587.9 3055 591.6 3055.7 592.5C3056.2 593.1 3059.2 597.3 3062.3 602C3065.4 606.7 3068.4 611 3069 611.7C3069.5 612.4 3070 613.3 3070 613.9C3070 614.4 3070.4 615 3070.9 615.2C3071.4 615.4 3073.9 618.9 3076.6 623C3079.3 627.1 3082.7 632.1 3084.3 634.1C3085.8 636.1 3087 638.2 3087 638.8C3087 639.4 3087.4 640 3087.8 640.2C3088.3 640.4 3091.2 644.3 3094.3 649C3097.4 653.7 3100.4 658 3100.9 658.6C3101.4 659.2 3104.4 663.7 3107.6 668.6C3110.9 673.5 3114.2 678.3 3115.1 679.3C3116 680.2 3117.3 682.3 3118.1 683.8C3118.9 685.3 3120 687 3120.5 687.6C3121.1 688.2 3126.9 696.7 3133.5 706.6C3140.1 716.4 3146.3 725.3 3147.3 726.4C3148.2 727.5 3149 729 3149 729.7C3149 730.4 3149.5 731 3150 731C3150.6 731 3151 731.4 3151 732C3151 732.9 3152.9 735.6 3155.8 738.6C3156.9 739.8 3138.5 740 3030.1 740C2904 740 2903.1 740 2902.5 738C2902.2 736.9 2901.4 736 2900.9 736C2900.4 736 2900 735.6 2900 735C2900 734.5 2898 730.9 2895.5 727C2893 723.1 2891 719.6 2891 719.1C2891 718.7 2890.1 717.5 2889 716.5C2887.9 715.5 2887 714.1 2887 713.3C2887 712.6 2886.6 712 2886.1 712C2885.6 712 2884.7 710.7 2884 709C2883.3 707.4 2882.4 706 2881.9 706C2881.4 706 2881 705.5 2881 705C2881 704 2871.1 687.7 2869 685.3C2868.5 684.6 2868 683.6 2868 683C2868 682.5 2867.6 682 2867.2 682C2866.7 682 2865.6 680.5 2864.7 678.8C2862 673.6 2858.7 668.2 2856.8 666C2855.8 664.9 2855 663.5 2855 662.9C2855 662.4 2854.1 661 2853 659.8C2851.9 658.6 2851 657 2851 656.3C2851 655.6 2850.6 655 2850.2 655C2849.7 655 2848.3 653 2847.1 650.5C2845.9 648.1 2844.5 645.8 2844 645.5C2843.5 645.2 2842.3 643.4 2841.4 641.5C2840.5 639.6 2839.4 638 2838.9 638C2838.4 638 2838 637.5 2838 636.9C2838 636.3 2836.7 633.9 2835 631.5C2833.4 629.1 2832 626.7 2832 626.1C2832 625.5 2831.6 625 2831.2 625C2830.7 625 2829.5 623.2 2828.5 621C2827.5 618.8 2826.3 617 2825.8 617C2825.4 617 2825 616.3 2825 615.5C2825 614.7 2824.6 614 2824 614C2823.5 614 2823 613.4 2823 612.7C2823 612 2822.1 610.4 2821 609.2C2819.9 608 2819 606.8 2819 606.5C2819 606.2 2817 602.8 2814.5 599C2812 595.2 2810 591.7 2810 591.2C2810 590.7 2809.1 589.5 2808 588.5C2806.9 587.5 2806 586.1 2806 585.3C2806 584.6 2805.6 584 2805.1 584C2804.6 584 2803.7 582.7 2803 581C2802.3 579.4 2801.4 578 2800.9 578C2800.4 578 2800 577.5 2800 576.9C2800 576.3 2797.5 572 2794.5 567.4C2791.5 562.7 2789 558.5 2789 558C2789 557.4 2788.6 557 2788 557C2787.5 557 2787 556.3 2787 555.5C2787 554.7 2786.6 554 2786.2 554C2785.7 554 2784.6 552.5 2783.7 550.8C2781.9 547.3 2781.1 546 2776.8 539.3C2775.2 537 2774 534.7 2774 534.1C2774 532.1 2769.9 531.8 2768.5 533.7C2767.7 534.7 2767 535.9 2767 536.3C2767 536.7 2766.1 538 2765 539.2C2763.9 540.4 2763 542 2763 542.7C2763 543.4 2762.6 544 2762.2 544C2761.8 544 2760.2 546.3 2758.6 549.1C2757.1 551.9 2755.4 554.7 2754.9 555.4C2752.8 558 2744 572.1 2744 573C2744 573.6 2743.6 574 2743.1 574C2742.6 574 2741.5 575.5 2740.5 577.3C2737.6 583 2736.4 584.9 2734.7 586.8C2733.7 587.8 2733 589.2 2733 589.8C2733 590.5 2732.6 591 2732 591C2731.5 591 2731 591.4 2731 592C2731 592.5 2727.6 598.1 2723.5 604.5C2719.4 610.8 2716 616.5 2716 617C2716 617.6 2715.6 618 2715 618C2714.5 618 2714 618.7 2714 619.5C2714 620.3 2713.6 621 2713.2 621C2712.7 621 2711.7 622.2 2710.9 623.7C2709.5 626.4 2703.9 635.5 2702.3 637.6C2701.6 638.5 2701 639.5 2697.8 645.2C2697.1 646.4 2696 648 2695.4 648.6C2694.8 649.3 2692.4 653.1 2689.9 657.1C2687.5 661.2 2685.2 664.7 2684.8 664.8C2684.3 665 2684 665.7 2684 666.4C2684 667.1 2683.1 668.5 2682 669.5C2680.9 670.5 2680 671.7 2680 672.1C2680 672.6 2677.1 677.5 2673.5 683C2669.9 688.5 2667 693.3 2667 693.6C2667 693.9 2666.1 695 2665 696.2C2663.9 697.4 2662.4 699.6 2661.8 701.2C2661.1 702.7 2660.2 704 2659.9 704C2659.6 704 2658.5 705.8 2657.5 708C2656.5 710.2 2655.3 712 2654.8 712C2654.4 712 2654 712.5 2654 713C2654 714.2 2649.9 720.3 2648.8 720.8C2648.3 721 2648 721.6 2648 722.1C2648 722.6 2645.5 726.8 2642.5 731.5L2636.9 740H2509.5C2425.2 740 2382 739.7 2382 739V739Z" fill="black"/>
<path d="M558.5 568.7C555.2 568 550.3 566.4 547.6 565C541.5 562.1 529.3 550.6 523.5 542.5C517.8 534.5 510.5 519.5 507.3 509C505.9 504.3 503.7 499.2 502.4 497.7C500.7 495.6 500 493.6 500 490.5C500 488.1 499.6 485.8 499 485.5C498.5 485.2 498 483.4 498 481.5C498 479.6 497.6 477.8 497 477.5C496.5 477.2 496 475.4 496 473.6C496 471.9 495.6 470 495.1 469.5C494.6 468.9 493.9 466.7 493.6 464.5C493.3 462.3 492.3 455.8 491.4 450C490.6 444.2 489.6 436.6 489.4 433C489.1 429.4 488.5 425.6 488 424.5C485.9 419.9 485.1 374.6 486.9 353C488.8 328.9 492.2 305.1 496 290C496.6 287.5 497.4 284 497.7 282.2C498 280.4 498.6 278.7 499.1 278.4C499.6 278.1 500 276.6 500 275C500 273.4 500.5 271.8 501 271.5C501.6 271.2 502 269.6 502 268C502 266.4 502.5 264.8 503 264.5C503.6 264.2 504 263 504 261.9C504 260.9 504.4 259.2 504.9 258.2C505.3 257.3 506.9 252.7 508.4 248C509.9 243.3 511.5 238.6 511.9 237.5C513.3 234.2 517.1 225.7 519.1 221.7C520.2 219.5 521 217.4 521 216.8C521 215.7 530.1 197.5 536 187C538.2 182.9 540.4 178.7 540.7 177.7C541 176.8 541.6 176 542.1 176C542.6 176 543 175.6 543 175.1C543 174.6 544.7 171.5 546.8 168.3C554.5 156.7 556.5 153.7 557.5 152.1C558.1 151.2 558.8 150.3 559.1 150C559.4 149.7 561 147.5 562.8 145C564.5 142.5 566.9 139.3 568.2 137.8C569.5 136.3 571.2 134.2 572 133.2C586.9 114.2 617.2 84.4 630.9 75.1C632.9 73.7 634.7 72.4 635 72C636.1 70.7 648.6 61.7 650.8 60.7C652 60.1 653 59.3 653 58.8C653 58.4 653.7 58 654.5 58C655.3 58 656 57.6 656 57C656 56.5 656.7 56 657.5 56C658.3 56 659 55.6 659 55C659 54.5 659.5 54 660.1 54C660.7 54 662.4 53.1 663.8 52.1C667.2 49.7 675.9 44.8 683 41.3C686 39.8 688.7 38.2 688.8 37.8C689 37.4 690 37 691.1 37C692.1 37 693 36.7 693 36.2C693 35.8 694.2 35 695.8 34.3C700.4 32.3 712.9 27.2 718.3 25.1C722 23.7 726.4 21.8 728.2 20.9C729.2 20.4 730.9 20 731.9 20C733 20 734.2 19.6 734.5 19C734.8 18.5 736.2 18 737.5 18C738.8 18 740.1 17.6 740.4 17.1C740.7 16.6 742.2 16 743.7 15.7C745.3 15.5 750.1 14.3 754.4 13.1C758.8 12 763.3 11 764.6 11C765.9 11 767.2 10.6 767.5 10C767.8 9.5 770.1 9 772.6 9C775 9 777 8.6 777 8C777 7.5 779.2 7 781.8 7C784.4 7 787 6.6 787.6 6.1C788.5 5.1 792.9 4.7 814.5 3.1C821.1 2.7 829.5 1.7 833.1 1C838.7 -0.0999997 840.9 3.57628e-07 848.6 1.4C853.5 2.3 861.6 3 866.7 3C871.7 3 876.2 3.4 876.5 4C876.8 4.5 880 5 883.5 5C887 5 890.2 5.5 890.5 6C890.8 6.6 893.3 7 896 7C898.7 7 901.2 7.4 901.5 8C901.8 8.5 903.9 9 906 9C908.1 9 910.2 9.5 910.5 10C910.8 10.6 912.2 11 913.5 11C917 11 935 15.4 938.2 17.1C939.2 17.6 940.9 18 941.9 18C943 18 944.2 18.5 944.5 19C944.8 19.6 946.2 20 947.6 20C948.9 20 950 20.5 950 21C950 21.6 951.1 22 952.5 22C953.9 22 955 22.5 955 23C955 23.6 956.1 24 957.5 24C958.9 24 960 24.5 960 25C960 25.6 961 26 962.3 26C963.6 26 965 26.4 965.6 26.8C966.1 27.3 968.1 28.3 970 29C975.5 31 992.5 39.4 992.8 40.2C993 40.6 994 41 995 41C996 41 997 41.3 997.2 41.8C997.5 42.4 1004.9 46.6 1010.7 49.4C1012 50 1013 50.8 1013 51.3C1013 51.7 1013.7 52 1014.5 52C1015.3 52 1016 52.5 1016 53C1016 53.6 1016.4 54 1017 54C1018.8 54 1037.9 67.1 1046.1 74C1047 74.8 1050.2 77.3 1053 79.5C1067.5 90.6 1096 119.5 1108 135.2C1108.8 136.3 1110.7 138.6 1112.2 140.4C1117.7 146.9 1123 154.5 1123 155.7C1123 156.4 1127.1 163.8 1132.1 172.2C1145.1 193.9 1145.6 194.9 1154.7 219.5C1157 225.6 1155.8 231.9 1150.1 243.4C1123.6 297.2 1004.6 388.1 859 465.9C826.4 483.4 793.8 499.4 769 510.3C762.1 513.3 754 516.9 751 518.3C731.5 527.1 683.3 545.2 658 553.1C616.6 566.1 576.1 572.4 558.5 568.7V568.7Z" fill="black"/>
<path d="M1534.61 1168L1384.61 833H1348.11L1198.11 1168H1240.61L1278.11 1083H1454.61L1492.11 1168H1534.61ZM1439.11 1047.5H1293.61L1366.61 882L1439.11 1047.5ZM1732.5 1137.5C1714.5 1137.5 1697 1134 1680.5 1127C1664 1120 1649.5 1110.5 1637.5 1098C1625 1085.5 1615.5 1071 1608.5 1054C1601.5 1037 1598 1019.5 1598 1000.5C1598 982 1601.5 964.5 1608.5 947.5C1615.5 930.5 1625 916 1637.5 903.5C1649.5 891 1664 881 1680.5 874C1696.5 867 1714 863.5 1732.5 863.5C1761.5 863.5 1786.5 871 1808.5 886C1830.5 901 1845.5 911 1854 937.5H1892C1881.5 904 1862 877 1833 857C1804 837 1770.5 827 1732.5 827C1708.5 827 1686 831 1665 840C1643.5 849 1625 861.5 1609 877.5C1593 893.5 1580.5 912 1571.5 933.5C1562.5 954.5 1558.5 977 1558.5 1001C1558.5 1024.5 1562.5 1047 1571.5 1068.5C1580.5 1089.5 1593 1108.5 1609 1124.5C1625 1140.5 1643.5 1152.5 1665 1161.5C1686 1170.5 1708.5 1175 1732.5 1175C1770.5 1175 1804 1164.5 1833 1144C1862 1123.5 1881.5 1096 1892 1061.5H1854C1845 1088.5 1830 1100.5 1808.5 1115.5C1787 1130.5 1761.5 1137.5 1732.5 1137.5ZM2121.17 1137.5C2103.17 1137.5 2085.67 1134 2069.17 1127C2052.67 1120 2038.17 1110.5 2026.17 1098C2013.67 1085.5 2004.17 1071 1997.17 1054C1990.17 1037 1986.67 1019.5 1986.67 1000.5C1986.67 982 1990.17 964.5 1997.17 947.5C2004.17 930.5 2013.67 916 2026.17 903.5C2038.17 891 2052.67 881 2069.17 874C2085.17 867 2102.67 863.5 2121.17 863.5C2150.17 863.5 2175.17 871 2197.17 886C2219.17 901 2234.17 911 2242.67 937.5H2280.67C2270.17 904 2250.67 877 2221.67 857C2192.67 837 2159.17 827 2121.17 827C2097.17 827 2074.67 831 2053.67 840C2032.17 849 2013.67 861.5 1997.67 877.5C1981.67 893.5 1969.17 912 1960.17 933.5C1951.17 954.5 1947.17 977 1947.17 1001C1947.17 1024.5 1951.17 1047 1960.17 1068.5C1969.17 1089.5 1981.67 1108.5 1997.67 1124.5C2013.67 1140.5 2032.17 1152.5 2053.67 1161.5C2074.67 1170.5 2097.17 1175 2121.17 1175C2159.17 1175 2192.67 1164.5 2221.67 1144C2250.67 1123.5 2270.17 1096 2280.67 1061.5H2242.67C2233.67 1088.5 2218.67 1100.5 2197.17 1115.5C2175.67 1130.5 2150.17 1137.5 2121.17 1137.5ZM2596.84 1132H2391.84V1017.5H2581.84V982H2391.84V868.5H2596.34V833H2352.34V1168H2596.84V1132ZM2782.2 826.5C2764.7 826.5 2748.7 829 2733.7 833.5C2718.7 838.5 2706.2 845 2695.7 853.5C2685.2 862 2677.2 872 2671.2 884C2665.7 896 2662.7 908.5 2662.7 922.5C2662.7 967.5 2689.7 996 2743.2 1008L2818.7 1024.5C2837.7 1029 2851.7 1035 2860.2 1043C2869.2 1051 2873.2 1062.5 2873.2 1077.5C2873.2 1096 2866.2 1111 2851.2 1122.5C2836.7 1134 2816.7 1140 2791.7 1140C2765.7 1140 2743.7 1133.5 2725.7 1120.5C2708.2 1107.5 2697.7 1098 2694.2 1075H2652.7C2654.7 1090 2659.2 1104 2667.2 1116.5C2674.7 1129 2684.7 1139.5 2696.7 1148.5C2708.7 1157 2722.7 1163.5 2738.7 1168C2754.7 1172.5 2771.2 1175 2788.7 1175C2811.7 1175 2831.2 1171.5 2847.7 1165C2863.7 1158.5 2876.7 1150.5 2886.7 1141C2896.2 1131 2903.2 1120.5 2907.2 1109C2911.2 1097.5 2913.2 1086.5 2913.2 1075.5C2913.2 1056.5 2908.7 1040.5 2899.7 1028.5C2890.7 1016 2879.2 1007 2865.7 1001C2852.2 995 2839.7 990.5 2828.7 988.5L2755.7 972C2739.2 968.5 2726.7 963 2718.2 955C2709.2 947 2705.2 936 2705.2 922C2705.2 908.5 2709.2 897 2717.2 887.5C2725.2 877.5 2735.2 871 2747.2 867C2759.2 863 2770.7 861.5 2781.2 861.5C2791.7 861.5 2803.2 863.5 2815.7 867.5C2828.2 871.5 2839.2 878.5 2849.2 889.5C2859.2 900.5 2865.2 908 2868.2 923H2907.7C2901.7 895 2887.7 869 2865.2 852C2842.7 835 2815.2 826.5 2782.2 826.5ZM3085.91 826.5C3068.41 826.5 3052.41 829 3037.41 833.5C3022.41 838.5 3009.91 845 2999.41 853.5C2988.91 862 2980.91 872 2974.91 884C2969.41 896 2966.41 908.5 2966.41 922.5C2966.41 967.5 2993.41 996 3046.91 1008L3122.41 1024.5C3141.41 1029 3155.41 1035 3163.91 1043C3172.91 1051 3176.91 1062.5 3176.91 1077.5C3176.91 1096 3169.91 1111 3154.91 1122.5C3140.41 1134 3120.41 1140 3095.41 1140C3069.41 1140 3047.41 1133.5 3029.41 1120.5C3011.91 1107.5 3001.41 1098 2997.91 1075H2956.41C2958.41 1090 2962.91 1104 2970.91 1116.5C2978.41 1129 2988.41 1139.5 3000.41 1148.5C3012.41 1157 3026.41 1163.5 3042.41 1168C3058.41 1172.5 3074.91 1175 3092.41 1175C3115.41 1175 3134.91 1171.5 3151.41 1165C3167.41 1158.5 3180.41 1150.5 3190.41 1141C3199.91 1131 3206.91 1120.5 3210.91 1109C3214.91 1097.5 3216.91 1086.5 3216.91 1075.5C3216.91 1056.5 3212.41 1040.5 3203.41 1028.5C3194.41 1016 3182.91 1007 3169.41 1001C3155.91 995 3143.41 990.5 3132.41 988.5L3059.41 972C3042.91 968.5 3030.41 963 3021.91 955C3012.91 947 3008.91 936 3008.91 922C3008.91 908.5 3012.91 897 3020.91 887.5C3028.91 877.5 3038.91 871 3050.91 867C3062.91 863 3074.41 861.5 3084.91 861.5C3095.41 861.5 3106.91 863.5 3119.41 867.5C3131.91 871.5 3142.91 878.5 3152.91 889.5C3162.91 900.5 3168.91 908 3171.91 923H3211.41C3205.41 895 3191.41 869 3168.91 852C3146.41 835 3118.91 826.5 3085.91 826.5Z" fill="#2400FF"/>
</svg>
